# Blender v2.79 (sub 0) OBJ File: ''
# www.blender.org
mtllib toon.mtl
o Cylinder
v -0.936042 0.948550 0.117284
v -0.936042 2.948550 0.117284
v -0.740951 0.948550 0.136499
v -0.740951 2.948550 0.136499
v -0.553358 0.948550 0.193405
v -0.553358 2.948550 0.193405
v -0.380471 0.948550 0.285815
v -0.380471 2.948550 0.285815
v -0.228935 0.948550 0.410177
v -0.228935 2.948550 0.410177
v -0.104572 0.948550 0.561714
v -0.104572 2.948550 0.561714
v -0.012162 0.948550 0.734601
v -0.012162 2.948550 0.734601
v 0.044744 0.948550 0.922194
v 0.044744 2.948550 0.922194
v 0.063958 0.948550 1.117284
v 0.063958 2.948550 1.117284
v 0.044744 0.948550 1.312374
v 0.044744 2.948550 1.312374
v -0.012162 0.948550 1.499967
v -0.012162 2.948550 1.499967
v -0.104572 0.948550 1.672854
v -0.104572 2.948550 1.672854
v -0.228935 0.948550 1.824391
v -0.228935 2.948550 1.824391
v -0.380471 0.948550 1.948754
v -0.380471 2.948550 1.948754
v -0.553358 0.948550 2.041164
v -0.553358 2.948550 2.041164
v -0.740952 0.948550 2.098069
v -0.740952 2.948550 2.098069
v -0.936042 0.948550 2.117284
v -0.936042 2.948550 2.117284
v -1.131132 0.948550 2.098069
v -1.131132 2.948550 2.098069
v -1.318725 0.948550 2.041163
v -1.318725 2.948550 2.041163
v -1.491612 0.948550 1.948753
v -1.491612 2.948550 1.948753
v -1.643149 0.948550 1.824391
v -1.643149 2.948550 1.824391
v -1.767512 0.948550 1.672854
v -1.767512 2.948550 1.672854
v -1.859921 0.948550 1.499967
v -1.859921 2.948550 1.499967
v -1.916827 0.948550 1.312374
v -1.916827 2.948550 1.312374
v -1.936042 0.948550 1.117283
v -1.936042 2.948550 1.117283
v -1.916827 0.948550 0.922193
v -1.916827 2.948550 0.922193
v -1.859921 0.948550 0.734600
v -1.859921 2.948550 0.734600
v -1.767511 0.948550 0.561713
v -1.767511 2.948550 0.561713
v -1.643147 0.948550 0.410177
v -1.643147 2.948550 0.410177
v -1.491611 0.948550 0.285814
v -1.491611 2.948550 0.285814
v -1.318724 0.948550 0.193404
v -1.318724 2.948550 0.193404
v -1.131130 0.948550 0.136499
v -1.131130 2.948550 0.136499
vn 0.0980 0.0000 -0.9952
vn 0.2903 0.0000 -0.9569
vn 0.4714 0.0000 -0.8819
vn 0.6344 0.0000 -0.7730
vn 0.7730 0.0000 -0.6344
vn 0.8819 0.0000 -0.4714
vn 0.9569 0.0000 -0.2903
vn 0.9952 0.0000 -0.0980
vn 0.9952 0.0000 0.0980
vn 0.9569 0.0000 0.2903
vn 0.8819 0.0000 0.4714
vn 0.7730 0.0000 0.6344
vn 0.6344 0.0000 0.7730
vn 0.4714 0.0000 0.8819
vn 0.2903 0.0000 0.9569
vn 0.0980 0.0000 0.9952
vn -0.0980 0.0000 0.9952
vn -0.2903 0.0000 0.9569
vn -0.4714 0.0000 0.8819
vn -0.6344 0.0000 0.7730
vn -0.7730 0.0000 0.6344
vn -0.8819 0.0000 0.4714
vn -0.9569 0.0000 0.2903
vn -0.9952 0.0000 0.0980
vn -0.9952 0.0000 -0.0980
vn -0.9569 0.0000 -0.2903
vn -0.8819 0.0000 -0.4714
vn -0.7730 0.0000 -0.6344
vn -0.6344 0.0000 -0.7730
vn -0.4714 0.0000 -0.8819
vn 0.0000 1.0000 -0.0000
vn -0.2903 0.0000 -0.9569
vn -0.0980 0.0000 -0.9952
vn 0.0000 -1.0000 0.0000
usemtl None
s off
f 1//1 2//1 4//1 3//1
f 3//2 4//2 6//2 5//2
f 5//3 6//3 8//3 7//3
f 7//4 8//4 10//4 9//4
f 9//5 10//5 12//5 11//5
f 11//6 12//6 14//6 13//6
f 13//7 14//7 16//7 15//7
f 15//8 16//8 18//8 17//8
f 17//9 18//9 20//9 19//9
f 19//10 20//10 22//10 21//10
f 21//11 22//11 24//11 23//11
f 23//12 24//12 26//12 25//12
f 25//13 26//13 28//13 27//13
f 27//14 28//14 30//14 29//14
f 29//15 30//15 32//15 31//15
f 31//16 32//16 34//16 33//16
f 33//17 34//17 36//17 35//17
f 35//18 36//18 38//18 37//18
f 37//19 38//19 40//19 39//19
f 39//20 40//20 42//20 41//20
f 41//21 42//21 44//21 43//21
f 43//22 44//22 46//22 45//22
f 45//23 46//23 48//23 47//23
f 47//24 48//24 50//24 49//24
f 49//25 50//25 52//25 51//25
f 51//26 52//26 54//26 53//26
f 53//27 54//27 56//27 55//27
f 55//28 56//28 58//28 57//28
f 57//29 58//29 60//29 59//29
f 59//30 60//30 62//30 61//30
f 4//31 2//31 64//31 62//31 60//31 58//31 56//31 54//31 52//31 50//31 48//31 46//31 44//31 42//31 40//31 38//31 36//31 34//31 32//31 30//31 28//31 26//31 24//31 22//31 20//31 18//31 16//31 14//31 12//31 10//31 8//31 6//31
f 61//32 62//32 64//32 63//32
f 63//33 64//33 2//33 1//33
f 1//34 3//34 5//34 7//34 9//34 11//34 13//34 15//34 17//34 19//34 21//34 23//34 25//34 27//34 29//34 31//34 33//34 35//34 37//34 39//34 41//34 43//34 45//34 47//34 49//34 51//34 53//34 55//34 57//34 59//34 61//34 63//34
