# Blender v2.79 (sub 0) OBJ File: ''
# www.blender.org
mtllib untitled.mtl
o Raw_meat_Plane.001
v -0.309959 0.000000 1.429806
v -0.378536 0.000000 -1.590161
v -0.897496 0.000000 1.456748
v -0.838280 0.000000 -1.521506
v -1.058067 0.000000 1.272565
v -1.017741 0.000000 -1.456334
v -1.233749 0.000000 1.153554
v -1.193424 0.000000 -1.462001
v -1.664455 0.000000 1.130885
v -1.624130 0.000000 -1.427998
v -1.930813 0.000000 1.187557
v -1.890488 0.000000 -1.371326
v -2.021488 0.000000 1.176223
v -2.066171 0.000000 -1.269317
v -2.117830 0.000000 -0.761955
v -2.122843 0.000000 -1.087967
v -2.355852 0.000000 1.227227
v -2.197171 0.000000 -0.574938
v -2.401190 0.000000 1.227227
v -2.282179 0.000000 -0.110229
v -2.514533 0.000000 1.136552
v -2.395522 0.000000 -0.008219
v -2.701550 0.000000 0.688844
v -2.610875 0.000000 0.065454
v -2.854564 0.000000 0.267147
v -2.763889 0.000000 0.152788
v -0.071938 0.000000 1.146447
v 0.188183 0.000000 -1.607162
v 0.120747 0.000000 1.078441
v 0.380867 0.000000 -1.578826
v 0.313431 0.000000 1.254124
v 0.573552 0.000000 -1.516487
v 0.466445 0.000000 1.248456
v 0.726566 0.000000 -1.488151
v 0.755472 0.000000 0.970764
v 1.015592 0.000000 -1.437146
v 1.118171 0.000000 0.585396
v 1.315953 0.000000 -1.238795
v 1.265518 0.000000 -0.003992
v 1.417963 0.000000 -1.119784
v 1.441201 0.000000 -0.385016
v 1.531307 0.000000 -0.761428
v -0.249676 0.314150 1.606186
v -0.326192 0.314150 -1.763479
v -0.905247 0.314150 1.636248
v -0.839174 0.314150 -1.686875
v -1.084410 0.314150 1.430737
v -1.039415 0.314150 -1.614156
v -1.280436 0.314150 1.297944
v -1.235441 0.314150 -1.620479
v -1.761016 0.314150 1.272651
v -1.716021 0.314150 -1.582539
v -2.058216 0.314150 1.335885
v -2.013222 0.314150 -1.519305
v -2.159391 0.314150 1.323238
v -2.209248 0.314150 -1.405483
v -2.266889 0.314150 -0.839371
v -2.272482 0.314150 -1.203133
v -2.532473 0.314150 1.380149
v -2.355417 0.314150 -0.630698
v -2.583060 0.314150 1.380148
v -2.450269 0.314150 -0.112178
v -2.709529 0.314150 1.278973
v -2.576737 0.314150 0.001644
v -2.918201 0.314150 0.779424
v -2.817027 0.314150 0.083848
v -3.088934 0.314150 0.308896
v -2.987759 0.314150 0.181294
v 0.015908 0.314150 1.290015
v 0.306149 0.314150 -1.782449
v 0.230904 0.314150 1.214134
v 0.521146 0.314150 -1.750832
v 0.445901 0.314150 1.410160
v 0.736142 0.314150 -1.681275
v 0.616633 0.314150 1.403837
v 0.906874 0.314150 -1.649657
v 0.939127 0.314150 1.093989
v 1.229368 0.314150 -1.592747
v 1.343826 0.314150 0.663996
v 1.564510 0.314150 -1.371427
v 1.508235 0.314150 0.006361
v 1.678332 0.314150 -1.238635
v 1.704261 0.314150 -0.418785
v 1.804800 0.314150 -0.838783
v -0.363647 0.459610 1.272728
v -0.425151 0.459610 -1.435807
v -0.890594 0.459610 1.296891
v -0.837485 0.459610 -1.374233
v -1.034606 0.459610 1.131701
v -0.998439 0.459610 -1.315781
v -1.192171 0.459610 1.024963
v -1.156005 0.459610 -1.320864
v -1.578461 0.459610 1.004632
v -1.542294 0.459610 -1.290368
v -1.817351 0.459610 1.055460
v -1.781184 0.459610 -1.239540
v -1.898675 0.459610 1.045295
v -1.938750 0.459610 -1.148050
v -1.985082 0.459610 -0.693010
v -1.989578 0.459610 -0.985402
v -2.198558 0.459610 1.091039
v -2.056241 0.459610 -0.525279
v -2.239220 0.459610 1.091039
v -2.132482 0.459610 -0.108492
v -2.340875 0.459610 1.009714
v -2.234137 0.459610 -0.017003
v -2.508606 0.459610 0.608176
v -2.427282 0.459610 0.049073
v -2.645841 0.459610 0.229966
v -2.564517 0.459610 0.127400
v -0.150171 0.459610 1.018589
v 0.083125 0.459610 -1.451056
v 0.022643 0.459610 0.957596
v 0.255939 0.459610 -1.425642
v 0.195457 0.459610 1.115162
v 0.428753 0.459610 -1.369732
v 0.332692 0.459610 1.110080
v 0.565988 0.459610 -1.344318
v 0.591913 0.459610 0.861024
v 0.825208 0.459610 -1.298573
v 0.917209 0.459610 0.515396
v 1.094595 0.459610 -1.120676
v 1.049361 0.459610 -0.013211
v 1.186085 0.459610 -1.013938
v 1.206927 0.459610 -0.354943
v 1.287740 0.459610 -0.692538
vt 0.882987 0.656107
vt 0.862862 0.742842
vt 0.909092 0.771609
vt 0.931548 0.674830
vt 0.598317 0.194331
vt 0.632530 0.210791
vt 0.652090 0.177948
vt 0.613915 0.159582
vt 0.392028 0.192611
vt 0.423222 0.163805
vt 0.418545 0.125522
vt 0.383739 0.157663
vt 0.740099 0.832001
vt 0.712930 0.838859
vt 0.741799 0.878744
vt 0.772114 0.871091
vt 0.205871 0.498493
vt 0.185746 0.473803
vt 0.153570 0.471415
vt 0.176025 0.498964
vt 0.104239 0.407154
vt 0.131408 0.305088
vt 0.092940 0.283164
vt 0.062625 0.397049
vt 0.275419 0.803725
vt 0.244225 0.779035
vt 0.218820 0.811992
vt 0.253626 0.839541
vt 0.809631 0.330126
vt 0.835794 0.472779
vt 0.878890 0.470274
vt 0.849698 0.311102
vt 0.192789 0.174779
vt 0.252159 0.187124
vt 0.227673 0.151541
vt 0.161429 0.137766
vt 0.462247 0.840074
vt 0.430382 0.824300
vt 0.426534 0.862499
vt 0.462088 0.880099
vt 0.315553 0.198097
vt 0.298408 0.163785
vt 0.666743 0.168269
vt 0.690264 0.130502
vt 0.791417 0.819656
vt 0.829375 0.857317
vt 0.147508 0.455971
vt 0.110904 0.451519
vt 0.644504 0.860806
vt 0.543878 0.856691
vt 0.553173 0.898640
vt 0.665450 0.903232
vt 0.234162 0.735141
vt 0.207593 0.763016
vt 0.866988 0.565001
vt 0.913696 0.573175
vt 0.184739 0.174779
vt 0.152447 0.137766
vt 0.399188 0.825671
vt 0.391728 0.864029
vt 0.268259 0.184381
vt 0.245637 0.148480
vt 0.693912 0.169641
vt 0.720579 0.132033
vt 0.844749 0.771647
vt 0.888882 0.803749
vt 0.235052 0.656234
vt 0.208586 0.674972
vt 0.120339 0.434833
vt 0.080589 0.427933
vt 0.678717 0.853948
vt 0.703624 0.895579
vt 0.220965 0.610969
vt 0.192867 0.624466
vt 0.164614 0.196726
vt 0.129991 0.162255
vt 0.322713 0.817441
vt 0.306397 0.854846
vt 0.745231 0.236852
vt 0.777840 0.207027
vt 0.451733 0.119226
vt 0.556055 0.125747
vt 0.566759 0.083057
vt 0.450356 0.075781
vt 0.687219 0.803339
vt 0.711586 0.797188
vt 0.273965 0.218813
vt 0.220718 0.207741
vt 0.773949 0.347068
vt 0.716190 0.263414
vt 0.214401 0.475928
vt 0.232451 0.498072
vt 0.452958 0.157918
vt 0.427388 0.197900
vt 0.825390 0.557722
vt 0.797414 0.475011
vt 0.155739 0.440978
vt 0.180107 0.459936
vt 0.337243 0.784130
vt 0.405832 0.791511
vt 0.258623 0.639547
vt 0.257825 0.710317
vt 0.656535 0.816871
vt 0.670163 0.203133
vt 0.546522 0.163766
vt 0.245988 0.598950
vt 0.839740 0.639433
vt 0.141300 0.416153
vt 0.433810 0.790281
vt 0.625850 0.823022
vt 0.288405 0.216353
vt 0.645796 0.201903
vt 0.805445 0.743058
vt 0.821690 0.717224
vt 0.195449 0.227425
vt 0.165667 0.324612
vt 0.462388 0.804428
vt 0.330822 0.228655
vt 0.535602 0.819332
vt 0.615111 0.240039
vt 0.266850 0.749684
vt 0.757613 0.786116
vt 0.213499 0.207741
vt 0.399411 0.223734
vt 0.584427 0.225277
vt 0.294827 0.771828
vn 0.7072 -0.6707 -0.2237
vn 0.2948 -0.4642 0.8353
vn -0.5088 -0.4208 0.7510
vn 0.1554 -0.5208 -0.8394
vn -0.6289 -0.3408 -0.6988
vn -0.7532 -0.5983 0.2733
vn -0.4299 -0.5167 -0.7404
vn 0.7733 -0.6038 0.1933
vn 0.1402 -0.3685 0.9190
vn -0.3058 -0.4442 -0.8421
vn -0.0476 -0.4230 0.9049
vn -0.6714 -0.0826 0.7364
vn 0.1486 -0.5183 -0.8422
vn -0.3198 -0.1551 -0.9347
vn -0.0263 -0.4795 -0.8771
vn -0.8314 -0.4912 -0.2598
vn 0.7386 -0.5818 0.3405
vn -0.0000 -0.4377 0.8991
vn 0.0288 -0.4471 -0.8940
vn 0.1947 -0.3531 0.9151
vn 0.0329 -0.4557 0.8895
vn 0.4328 -0.6191 -0.6553
vn -0.9047 -0.4258 0.0139
vn -0.1310 -0.4621 -0.8771
vn -0.4780 -0.2646 -0.8375
vn 0.7634 -0.6196 0.1827
vn 0.1244 -0.5187 -0.8459
vn -0.8124 -0.4704 -0.3446
vn -0.5017 -0.5958 0.6272
vn -0.0700 -0.4567 -0.8868
vn 0.5708 -0.5667 0.5941
vn -0.7003 -0.4487 -0.5553
vn -0.1101 -0.4605 0.8808
vn 0.0398 -0.4950 0.8680
vn 0.5713 -0.6587 -0.4897
vn 0.6827 -0.4529 0.5734
vn -0.7013 -0.3666 0.6114
vn -0.8701 -0.4665 -0.1592
vn 0.2571 -0.5499 -0.7947
vn -0.1830 -0.4765 -0.8599
vn -0.7391 -0.5987 0.3087
vn 0.5981 -0.5705 0.5629
vn 0.0000 -1.0000 0.0000
vn 0.0678 0.9280 -0.3663
vn 0.0793 0.8507 0.5196
vn 0.2422 0.9431 0.2279
vn -0.3745 0.8286 -0.4161
vn -0.3979 0.8493 0.3469
vn 0.2941 0.9461 0.1356
vn -0.3301 0.7461 -0.5783
vn -0.0339 0.9026 -0.4292
vn -0.4616 0.8871 0.0071
vn 0.1073 0.9373 -0.3317
vn 0.2324 0.9421 0.2419
vn 0.0181 0.9187 0.3946
vn -0.4143 0.9070 -0.0758
vn 0.2882 0.9551 0.0690
vn -0.3436 0.8987 -0.2724
vn 0.0142 0.8980 -0.4397
vn 0.0545 0.9273 -0.3704
vn -0.0529 0.9043 0.4236
vn 0.0160 0.9021 0.4312
vn -0.3843 0.9087 -0.1631
vn 0.2045 0.9630 -0.1753
vn -0.2873 0.9503 0.1200
vn -0.1512 0.8966 -0.4163
vn 0.1133 0.8389 0.5324
vn -0.0123 0.9125 -0.4088
vn -0.6382 0.3207 0.6999
vn -0.3802 0.9173 -0.1188
vn 0.1635 0.9550 -0.2476
vn -0.1959 0.9496 0.2448
vn -0.0628 0.9050 -0.4207
vn 0.2492 0.9652 -0.0788
vn -0.2930 0.9502 0.1063
vn -0.0244 0.8855 0.4640
vn 0.1409 0.9059 0.3993
vn -0.1888 0.9266 -0.3252
vn -0.0000 0.8933 0.4494
vn 0.0651 0.9272 -0.3690
vn 0.2984 0.9515 0.0746
vn -0.2619 0.8843 0.3865
vn -0.2725 0.5397 -0.7965
vn 0.3325 0.9008 0.2793
vn -0.0857 0.9113 -0.4027
vn 0.0000 1.0000 0.0000
usemtl Meat
s off
f 42/1/1 40/2/1 82/3/1 84/4/1
f 27/5/2 29/6/2 71/7/2 69/8/2
f 7/9/3 5/10/3 47/11/3 49/12/3
f 34/13/4 32/14/4 74/15/4 76/16/4
f 20/17/5 22/18/5 64/19/5 62/20/5
f 25/21/6 23/22/6 65/23/6 67/24/6
f 12/25/7 14/26/7 56/27/7 54/28/7
f 37/29/8 39/30/8 81/31/8 79/32/8
f 17/33/9 13/34/9 55/35/9 59/36/9
f 4/37/10 6/38/10 48/39/10 46/40/10
f 9/41/11 7/9/11 49/12/11 51/42/11
f 29/6/12 31/43/12 73/44/12 71/7/12
f 36/45/13 34/13/13 76/16/13 78/46/13
f 22/18/14 24/47/14 66/48/14 64/19/14
f 28/49/15 2/50/15 44/51/15 70/52/15
f 14/26/16 16/53/16 58/54/16 56/27/16
f 39/30/17 41/55/17 83/56/17 81/31/17
f 19/57/18 17/33/18 59/36/18 61/58/18
f 6/38/19 8/59/19 50/60/19 48/39/19
f 11/61/20 9/41/20 51/42/20 53/62/20
f 31/43/21 33/63/21 75/64/21 73/44/21
f 38/65/22 36/45/22 78/46/22 80/66/22
f 16/53/23 15/67/23 57/68/23 58/54/23
f 2/50/24 4/37/24 46/40/24 44/51/24
f 24/47/25 26/69/25 68/70/25 66/48/25
f 41/55/26 42/1/26 84/4/26 83/56/26
f 30/71/27 28/49/27 70/52/27 72/72/27
f 15/67/28 18/73/28 60/74/28 57/68/28
f 21/75/29 19/57/29 61/58/29 63/76/29
f 8/59/30 10/77/30 52/78/30 50/60/30
f 33/63/31 35/79/31 77/80/31 75/64/31
f 26/69/32 25/21/32 67/24/32 68/70/32
f 13/34/33 11/61/33 53/62/33 55/35/33
f 3/81/34 1/82/34 43/83/34 45/84/34
f 40/2/35 38/65/35 80/66/35 82/3/35
f 1/82/36 27/5/36 69/8/36 43/83/36
f 5/10/37 3/81/37 45/84/37 47/11/37
f 18/73/38 20/17/38 62/20/38 60/74/38
f 32/14/39 30/71/39 72/72/39 74/15/39
f 10/77/40 12/25/40 54/28/40 52/78/40
f 23/22/41 21/75/41 63/76/41 65/23/41
f 35/79/42 37/29/42 79/32/42 77/80/42
f 3/81/43 5/10/43 7/9/43 9/41/43 11/61/43 13/34/43 17/33/43 19/57/43 21/75/43 23/22/43 25/21/43 26/69/43 24/47/43 22/18/43 20/17/43 18/73/43 15/67/43 16/53/43 14/26/43 12/25/43 10/77/43 8/59/43 6/38/43 4/37/43 2/50/43 28/49/43 30/71/43 32/14/43 34/13/43 36/45/43 38/65/43 40/2/43 42/1/43 41/55/43 39/30/43 37/29/43 35/79/43 33/63/43 31/43/43 29/6/43 27/5/43 1/82/43
f 76/16/44 74/15/44 116/85/44 118/86/44
f 59/36/45 55/35/45 97/87/45 101/88/45
f 77/80/46 79/32/46 121/89/46 119/90/46
f 62/20/47 64/19/47 106/91/47 104/92/47
f 47/11/48 45/84/48 87/93/48 89/94/48
f 81/31/49 83/56/49 125/95/49 123/96/49
f 66/48/50 68/70/50 110/97/50 108/98/50
f 50/60/51 52/78/51 94/99/51 92/100/51
f 58/54/52 57/68/52 99/101/52 100/102/52
f 74/15/53 72/72/53 114/103/53 116/85/53
f 75/64/54 77/80/54 119/90/54 117/104/54
f 45/84/55 43/83/55 85/105/55 87/93/55
f 60/74/56 62/20/56 104/92/56 102/106/56
f 83/56/57 84/4/57 126/107/57 125/95/57
f 68/70/58 67/24/58 109/108/58 110/97/58
f 48/39/59 50/60/59 92/100/59 90/109/59
f 72/72/60 70/52/60 112/110/60 114/103/60
f 55/35/61 53/62/61 95/111/61 97/87/61
f 73/44/62 75/64/62 117/104/62 115/112/62
f 57/68/63 60/74/63 102/106/63 99/101/63
f 82/3/64 80/66/64 122/113/64 124/114/64
f 65/23/65 63/76/65 105/115/65 107/116/65
f 46/40/66 48/39/66 90/109/66 88/117/66
f 53/62/67 51/42/67 93/118/67 95/111/67
f 70/52/68 44/51/68 86/119/68 112/110/68
f 71/7/69 73/44/69 115/112/69 113/120/69
f 56/27/70 58/54/70 100/102/70 98/121/70
f 80/66/71 78/46/71 120/122/71 122/113/71
f 63/76/72 61/58/72 103/123/72 105/115/72
f 44/51/73 46/40/73 88/117/73 86/119/73
f 84/4/74 82/3/74 124/114/74 126/107/74
f 67/24/75 65/23/75 107/116/75 109/108/75
f 51/42/76 49/12/76 91/124/76 93/118/76
f 69/8/77 71/7/77 113/120/77 111/125/77
f 54/28/78 56/27/78 98/121/78 96/126/78
f 61/58/79 59/36/79 101/88/79 103/123/79
f 78/46/80 76/16/80 118/86/80 120/122/80
f 79/32/81 81/31/81 123/96/81 121/89/81
f 49/12/82 47/11/82 89/94/82 91/124/82
f 64/19/83 66/48/83 108/98/83 106/91/83
f 43/83/84 69/8/84 111/125/84 85/105/84
f 52/78/85 54/28/85 96/126/85 94/99/85
f 87/93/86 85/105/86 111/125/86 113/120/86 115/112/86 117/104/86 119/90/86 121/89/86 123/96/86 125/95/86 126/107/86 124/114/86 122/113/86 120/122/86 118/86/86 116/85/86 114/103/86 112/110/86 86/119/86 88/117/86 90/109/86 92/100/86 94/99/86 96/126/86 98/121/86 100/102/86 99/101/86 102/106/86 104/92/86 106/91/86 108/98/86 110/97/86 109/108/86 107/116/86 105/115/86 103/123/86 101/88/86 97/87/86 95/111/86 93/118/86 91/124/86 89/94/86
